<?xml version="1.0" encoding="UTF-8" standalone="no"?>
<svg width="146px" height="44px" viewBox="0 0 146 44" version="1.1" xmlns="http://www.w3.org/2000/svg" xmlns:xlink="http://www.w3.org/1999/xlink" xmlns:sketch="http://www.bohemiancoding.com/sketch/ns">
    <!-- Generator: Sketch 3.4.1 (15681) - http://www.bohemiancoding.com/sketch -->
    <title>first_contact_logo</title>
    <desc>Created with Sketch.</desc>
    <defs></defs>
    <g id="Page-1" stroke="none" stroke-width="1" fill="none" fill-rule="evenodd" sketch:type="MSPage">
        <g id="first_contact_logo" sketch:type="MSLayerGroup" fill="#FFFFFF">
            <g id="Group" sketch:type="MSShapeGroup">
                <path d="M11.086,24.408 C11.122,24.41 11.158,24.412 11.193,24.412 C12.039,24.412 12.744,23.75 12.8,22.905 C12.858,22.018 12.183,21.251 11.297,21.192 C11.261,21.19 11.225,21.188 11.19,21.188 C10.344,21.188 9.638,21.85 9.584,22.695 C9.556,23.125 9.697,23.539 9.98,23.863 C10.264,24.187 10.657,24.38 11.086,24.408 L11.086,24.408 Z M11.19,21.559 C11.217,21.559 11.245,21.56 11.273,21.562 C11.957,21.607 12.476,22.198 12.431,22.881 C12.388,23.538 11.842,24.042 11.193,24.042 C11.166,24.042 11.138,24.041 11.11,24.039 C10.426,23.994 9.907,23.403 9.952,22.72 C9.995,22.062 10.541,21.559 11.19,21.559 L11.19,21.559 Z" id="Shape"></path>
                <path d="M14.41,0.748 C6.539,0.784 0.403,7.317 0.44,15.622 C0.477,23.757 13.735,42.133 14.3,42.911 L14.602,43.328 L14.9,42.909 C15.458,42.125 28.552,23.624 28.516,15.488 C28.479,7.223 22.311,0.748 14.41,0.748 L14.41,0.748 Z M18.676,10.006 C18.723,10.002 18.77,10 18.816,10 C19.784,10 20.599,10.813 20.671,11.851 C20.748,12.953 19.976,13.913 18.951,13.995 C17.916,14.077 17.031,13.236 16.955,12.149 C16.879,11.048 17.65,10.087 18.676,10.006 L18.676,10.006 Z M9.278,9.687 C9.653,9.252 10.174,8.99 10.747,8.947 C10.801,8.943 10.854,8.941 10.908,8.941 C12.026,8.941 12.967,9.815 13.049,10.93 C13.092,11.502 12.909,12.057 12.534,12.492 C12.159,12.927 11.638,13.189 11.066,13.232 C9.882,13.312 8.851,12.418 8.764,11.249 C8.721,10.676 8.904,10.121 9.278,9.687 L9.278,9.687 Z M5.35,20.38 L6.53,20.38 L9.195,24.896 L8.33,26.462 L7.76,25.538 L4.575,20.38 L5.35,20.38 L5.35,20.38 Z M7.708,30.263 L7.738,27.699 L7.752,26.356 L8.352,27.328 L9.699,24.89 L7.801,21.674 L7.843,17.649 L7.351,20.911 L6.781,19.945 L5.4,19.945 C5.64,17.88 6.229,14.246 7.428,14.059 L14.339,14.059 C14.816,14.09 15.21,14.487 15.538,15.108 C15.01,15.847 14.574,17.146 14.205,19.009 L13.871,17.794 L13.948,20.439 C13.578,22.816 13.436,25.058 13.434,25.083 C13.424,25.244 13.511,25.382 13.636,25.477 C13.624,25.517 13.609,25.556 13.611,25.598 L13.629,26 C13.256,25.572 12.778,25.178 12.264,25.146 C12.257,25.145 12.249,25.145 12.242,25.145 L12.24,25.145 L10.211,25.16 C8.834,25.18 8.158,28.449 7.867,30.532 C7.812,30.44 7.76,30.353 7.708,30.263 L7.708,30.263 Z M9.379,32.796 L9.378,32.859 C9.284,32.706 9.19,32.551 9.095,32.396 L9.258,32.433 C9.286,32.44 9.313,32.443 9.341,32.443 C9.357,32.443 9.374,32.442 9.39,32.44 L9.379,32.796 L9.379,32.796 Z M13.563,39.47 C13.11,38.813 12.525,37.949 11.854,36.933 L11.535,32.798 L11.15,32.8 L10.958,35.557 C10.53,34.893 10.082,34.186 9.623,33.446 L9.631,32.807 L9.793,27.477 L9.223,32.074 L8.71,31.956 C8.531,31.66 8.352,31.361 8.173,31.059 C8.391,29.399 9.024,25.546 10.21,25.53 L12.238,25.515 C13.152,25.571 14.053,27.274 14.053,27.274 L13.981,25.663 L13.978,25.581 L15.004,25.968 C15.004,25.968 14.914,29.178 14.584,29.13 C14.514,29.12 14.361,28.996 14.177,28.825 C14.164,28.813 14.15,28.799 14.137,28.787 C14.03,28.685 13.916,28.573 13.798,28.452 C13.792,28.446 13.786,28.44 13.78,28.433 C13.715,28.367 13.652,28.301 13.588,28.233 C13.582,28.226 13.575,28.22 13.569,28.213 C13.459,28.096 13.356,27.984 13.261,27.88 C13.242,27.859 13.222,27.838 13.204,27.818 C13.174,27.785 13.15,27.757 13.123,27.728 C13.083,27.683 13.049,27.644 13.018,27.609 C13.004,27.593 12.991,27.579 12.979,27.565 C12.938,27.517 12.906,27.479 12.891,27.461 L13.043,32.792 L13.588,39.481 L13.563,39.47 L13.563,39.47 Z M13.414,32.761 L13.292,28.465 C13.586,28.779 13.918,29.103 14.187,29.303 L14.267,33.402 L13.813,37.659 L13.414,32.761 L13.414,32.761 Z M23.324,25.349 L21.49,18.928 L22.617,28.025 C19,34.643 14.537,40.862 14.537,40.862 C14.537,40.862 14.35,40.602 14.028,40.141 L16.279,19.031 L15.141,25.639 L13.907,25.111 C13.907,25.111 14.544,14.815 16.781,14.815 L21.015,14.815 C22.774,14.785 24.563,23.343 24.563,23.343 L23.324,25.349 L23.324,25.349 Z" id="Shape"></path>
                <path d="M45.502,21.075 L45.502,12.631 L53.125,12.63 L53.125,10.335 L45.502,10.336 L45.502,3.818 L53.606,3.817 L53.606,1.522 L42.753,1.523 L42.754,21.075 L45.502,21.075 Z" id="Shape"></path>
                <path d="M57.944,4.866 C58.964,4.866 59.701,4.158 59.701,3.194 C59.701,2.231 58.964,1.522 57.944,1.522 C56.896,1.522 56.159,2.231 56.159,3.194 C56.159,4.158 56.896,4.866 57.944,4.866 L57.944,4.866 Z" id="Shape"></path>
                <rect id="Rectangle-path" x="56.584" y="7.615" width="2.72" height="13.459"></rect>
                <path d="M66.191,21.074 L66.191,14.358 C66.191,12.375 66.757,11.327 67.012,10.958 C67.295,10.59 68.033,9.825 69.222,9.825 C69.958,9.825 70.441,9.995 70.696,10.108 L70.809,10.108 L70.978,7.587 C70.978,7.587 70.468,7.359 69.562,7.359 C68.117,7.359 66.898,8.153 66.248,9.683 L66.162,9.683 L66.19,7.615 L63.47,7.615 L63.47,21.074 L66.191,21.074 L66.191,21.074 Z" id="Shape"></path>
                <path d="M76.438,19.317 C75.192,19.317 73.491,18.637 72.471,17.39 L71.168,18.977 C72.301,20.451 74.143,21.385 76.409,21.385 C77.968,21.385 79.215,20.96 80.15,20.196 C81.028,19.459 81.538,18.439 81.538,17.135 C81.538,15.916 80.971,15.123 80.461,14.641 C80.065,14.245 79.441,13.905 78.902,13.678 C78.336,13.451 77.826,13.282 77.09,13.027 C75.758,12.601 74.454,12.12 74.454,11.014 C74.454,9.91 75.305,9.343 76.607,9.343 C77.911,9.343 79.214,9.966 80.007,10.787 L81.141,9.115 C80.29,8.209 78.93,7.358 76.55,7.358 C74.169,7.358 72.017,8.718 72.017,11.212 C72.017,13.139 73.292,14.017 74.142,14.441 C74.765,14.782 75.078,14.838 75.984,15.15 C76.89,15.462 79.015,15.915 79.015,17.388 C79.015,18.861 77.685,19.317 76.438,19.317 L76.438,19.317 Z" id="Shape"></path>
                <path d="M89.458,19.062 C88.693,19.062 88.324,18.807 88.069,18.382 C87.757,17.815 87.729,17.05 87.729,15.916 L87.729,9.824 L90.958,9.824 L90.958,7.642 L87.728,7.642 L87.728,3.618 L85.008,3.618 L85.008,7.642 L83.025,7.642 L83.025,9.824 L85.009,9.824 L85.009,15.972 C85.009,18.097 85.122,19.146 85.689,19.995 C86.255,20.846 87.134,21.384 88.55,21.384 C89.967,21.384 91.015,20.931 91.015,20.931 L90.845,18.749 C90.846,18.751 90.251,19.062 89.458,19.062 L89.458,19.062 Z" id="Shape"></path>
                <path d="M50.01,39.023 C47.686,39.023 46.168,37.503 46.169,35.087 C46.17,32.669 47.844,31.212 49.951,31.212 C52.089,31.212 53.452,32.235 53.886,32.575 L54.972,28.827 C54.972,28.827 53.206,27.214 49.302,27.214 C45.118,27.214 41.181,30.066 41.179,35.179 C41.177,40.263 45.05,43.113 49.234,43.113 C53.294,43.113 54.906,41.41 55.061,41.285 L53.885,37.535 C53.884,37.535 52.334,39.023 50.01,39.023 L50.01,39.023 Z" id="Shape"></path>
                <path d="M64.609,27.215 C59.775,27.215 56.116,30.252 56.114,35.18 C56.112,40.108 59.768,43.114 64.603,43.114 C69.437,43.114 73.064,40.108 73.066,35.18 C73.068,30.252 69.443,27.215 64.609,27.215 L64.609,27.215 Z M64.605,39.055 C62.404,39.055 61.134,37.35 61.135,35.088 C61.135,32.824 62.407,31.121 64.607,31.121 C66.777,31.121 68.078,32.824 68.077,35.088 C68.076,37.35 66.773,39.055 64.605,39.055 L64.605,39.055 Z" id="Shape"></path>
                <path d="M84.286,27.215 C82.086,27.215 80.691,28.332 79.853,29.695 L79.791,29.695 L79.823,27.494 L74.865,27.494 L74.859,42.773 L79.818,42.773 L79.82,35.211 C79.821,33.012 80.411,31.275 82.549,31.275 C84.595,31.275 84.904,32.795 84.903,34.808 L84.9,42.773 L89.859,42.773 L89.862,33.753 C89.863,30.066 88.718,27.215 84.286,27.215 L84.286,27.215 Z" id="Shape"></path>
                <path d="M98.789,23.373 L93.799,23.373 L93.798,27.525 L91.629,27.525 L91.627,31.275 L93.797,31.275 L93.795,37.195 C93.793,39.519 94.104,40.789 94.877,41.687 C95.652,42.587 96.83,43.113 98.596,43.113 C100.394,43.113 101.758,42.711 102.129,42.617 L101.883,38.744 C101.883,38.744 101.17,39.023 100.395,39.023 C99.745,39.023 99.434,38.898 99.217,38.65 C98.969,38.373 98.784,38.062 98.784,36.761 L98.787,31.275 L102.164,31.275 L102.166,27.525 L98.787,27.525 L98.789,23.373 L98.789,23.373 Z" id="Shape"></path>
                <path d="M110.935,27.215 C108.084,27.215 105.698,28.115 104.395,28.766 L105.696,31.989 C106.471,31.493 108.424,30.626 110.376,30.626 C112.36,30.626 113.506,31.462 113.505,33.073 L113.505,33.415 L109.663,33.569 C106.843,33.694 103.712,34.84 103.71,38.249 C103.71,41.659 106.56,43.114 109.257,43.114 C111.736,43.114 112.976,41.813 113.626,41.163 L113.719,42.774 L118.46,42.774 L118.464,34.159 C118.464,31.587 117.814,30.098 116.637,28.983 C115.428,27.867 113.785,27.215 110.935,27.215 L110.935,27.215 Z M113.533,38.559 C113.223,39.086 112.324,39.954 110.992,39.954 C109.628,39.954 108.668,39.241 108.668,38.063 C108.668,36.917 109.568,36.266 111.086,36.204 L113.535,36.05 L113.533,38.559 L113.533,38.559 Z" id="Shape"></path>
                <path d="M128.841,39.023 C126.517,39.023 124.998,37.503 125,35.087 C125,32.669 126.674,31.212 128.781,31.212 C130.92,31.212 132.283,32.235 132.717,32.575 L133.803,28.827 C133.803,28.827 132.037,27.214 128.133,27.214 C123.949,27.214 120.012,30.066 120.01,35.179 C120.008,40.263 123.881,43.113 128.065,43.113 C132.126,43.113 133.737,41.41 133.891,41.285 L132.715,37.535 C132.715,37.535 131.165,39.023 128.841,39.023 L128.841,39.023 Z" id="Shape"></path>
                <path d="M145.576,31.275 L145.578,27.525 L142.199,27.525 L142.201,23.373 L137.211,23.373 L137.21,27.525 L135.041,27.525 L135.039,31.275 L137.209,31.275 L137.207,37.195 C137.205,39.519 137.516,40.789 138.289,41.687 C139.064,42.587 140.242,43.113 142.008,43.113 C143.806,43.113 145.17,42.711 145.541,42.617 L145.295,38.744 C145.295,38.744 144.582,39.023 143.807,39.023 C143.157,39.023 142.846,38.898 142.629,38.65 C142.381,38.373 142.196,38.062 142.196,36.761 L142.199,31.275 L145.576,31.275 L145.576,31.275 Z" id="Shape"></path>
            </g>
        </g>
    </g>
</svg>